<svg id="Layer_1" enable-background="new 0 0 512 512" height="300" viewBox="0 0 512 512" width="300" xmlns="http://www.w3.org/2000/svg" version="1.1" xmlns:xlink="http://www.w3.org/1999/xlink" xmlns:svgjs="http://svgjs.dev/svgjs"><g width="100%" height="100%" transform="matrix(1,0,0,1,0,0)"><g id="Layer_2_00000053532303582445619110000002691886371809350038_"><g id="Layer_1-2"><g id="_09.Group"><path d="m256 316.5c68.4 0 123.9 55.5 123.9 123.9 0 6.4-5.2 11.6-11.5 11.6h-224.7c-6.4 0-11.6-5.2-11.6-11.6 0-68.4 55.5-123.8 123.9-123.9z" fill="#00a8ff" fill-opacity="1" data-original-color="#000000ff" stroke="none" stroke-opacity="1"/><circle cx="256" cy="240.6" r="70.5" fill="#00a8ff" fill-opacity="1" data-original-color="#000000ff" stroke="none" stroke-opacity="1"/><path d="m512 330.3c0 6.4-5.2 11.6-11.6 11.6h-140.6c-.9-.9-1.7-1.8-2.6-2.7-12.5-12.6-27.3-22.7-43.6-29.9 27.3-22.9 38.5-59.8 28.5-94 63.5-25.4 135.6 5.5 161 69 5.9 14.7 8.9 30.3 8.9 46z" fill="#00a8ff" fill-opacity="1" data-original-color="#000000ff" stroke="none" stroke-opacity="1"/><circle cx="388.1" cy="130.5" r="70.5" fill="#00a8ff" fill-opacity="1" data-original-color="#000000ff" stroke="none" stroke-opacity="1"/><path d="m198.4 309.3c-16.3 7.2-31 17.3-43.6 29.9-.9.9-1.8 1.8-2.6 2.7h-140.6c-6.4 0-11.6-5.2-11.6-11.6 0-68.4 55.6-123.9 124-123.8 15.7 0 31.3 3 45.9 8.8-10 34.2 1.1 71.1 28.5 94z" fill="#00a8ff" fill-opacity="1" data-original-color="#000000ff" stroke="none" stroke-opacity="1"/><circle cx="123.9" cy="130.5" r="70.5" fill="#00a8ff" fill-opacity="1" data-original-color="#000000ff" stroke="none" stroke-opacity="1"/></g></g></g></g></svg>